<?xml version="1.0" encoding="UTF-8" standalone="no"?>
<!-- Created with Inkscape (http://www.inkscape.org/) -->

<svg
   width="220"
   height="60"
   viewBox="0 0 58.208339 15.875001"
   version="1.1"
   id="svg5"
   sodipodi:docname="dependify.svg"
   inkscape:version="1.2.2 (732a01da63, 2022-12-09)"
   xmlns:inkscape="http://www.inkscape.org/namespaces/inkscape"
   xmlns:sodipodi="http://sodipodi.sourceforge.net/DTD/sodipodi-0.dtd"
   xmlns="http://www.w3.org/2000/svg"
   xmlns:svg="http://www.w3.org/2000/svg">
  <sodipodi:namedview
     id="namedview7"
     pagecolor="#cacaca"
     bordercolor="#000000"
     borderopacity="0.25"
     inkscape:showpageshadow="2"
     inkscape:pageopacity="0"
     inkscape:pagecheckerboard="0"
     inkscape:deskcolor="#d1d1d1"
     inkscape:document-units="mm"
     showgrid="false"
     inkscape:zoom="2.8649832"
     inkscape:cx="163.87531"
     inkscape:cy="82.897519"
     inkscape:window-width="1920"
     inkscape:window-height="991"
     inkscape:window-x="-9"
     inkscape:window-y="-9"
     inkscape:window-maximized="1"
     inkscape:current-layer="layer1" />
  <defs
     id="defs2" />
  <g
     inkscape:label="Capa 1"
     inkscape:groupmode="layer"
     id="layer1">
    <g
       aria-label="Dependify"
       id="text2242"
       style="font-style:italic;font-weight:bold;font-size:11.2889px;font-family:'Gill Sans MT';-inkscape-font-specification:'Gill Sans MT, Bold Italic';text-align:center;text-anchor:middle;fill:#ffffff;stroke:#47581e;stroke-width:1;stroke-linecap:round;stroke-linejoin:round;paint-order:stroke fill markers;stroke-dasharray:none">
      <path
         d="m 4.7349146,3.6449718 h 2.5576415 q 1.9292554,0 2.9490049,1.0473101 1.025261,1.0473101 1.025261,2.7009576 0,1.703257 -1.04731,2.8277375 -1.0417977,1.12448 -2.5852021,1.12448 H 3.6600437 Z M 6.1901244,4.9348169 5.479056,10.061124 h 1.53238 q 1.2071627,0 1.8851582,-0.7551655 0.6779955,-0.7606779 0.6779955,-1.9347676 0,-1.0803831 -0.7000441,-1.7583785 Q 8.1745015,4.9348169 6.9783631,4.9348169 Z"
         id="path14281"
         style="stroke-width:1;stroke-dasharray:none" />
      <path
         d="m 16.944345,8.9972776 h -3.351392 q -0.05512,0.6063374 0.275608,0.9646277 0.330729,0.3582907 0.898481,0.3582907 0.628386,0 1.896183,-0.5236554 l -0.270096,1.2788204 q -0.997701,0.369315 -1.780427,0.369315 -1.163065,0 -1.857597,-0.677996 -0.694532,-0.677995 -0.694532,-1.8134997 0,-1.1740897 0.810287,-1.9954013 0.810287,-0.8268238 1.962328,-0.8268238 0.997701,0 1.593014,0.5953131 0.600825,0.589801 0.600825,1.5599409 0,0.3417538 -0.08268,0.7110684 z M 13.741781,8.1153323 h 1.791451 q 0.01654,-0.093707 0.01654,-0.1874134 0,-0.3362417 -0.20395,-0.5401915 -0.20395,-0.2094621 -0.545704,-0.2094621 -0.733117,0 -1.058334,0.937067 z"
         id="path14283"
         style="stroke-width:1;stroke-dasharray:none" />
      <path
         d="m 20.543785,5.2269613 -0.132292,0.9921885 q 0.451997,-0.088195 0.937067,-0.088195 1.003213,0 1.620575,0.6173618 0.622874,0.6118496 0.622874,1.6150624 0,1.2843329 -0.937067,2.1828146 -0.937067,0.898482 -2.276522,0.898482 -0.303168,0 -0.68902,-0.09922 l -0.363802,2.596227 H 17.804242 L 18.61453,8.1263566 q -0.451997,0.3362416 -0.826824,0.8323359 -0.198438,0.2645836 -0.325218,0.2645836 -0.08819,0 -0.08819,-0.099219 0,-0.2315106 0.341754,-0.837848 0.347266,-0.6118496 1.04731,-1.1851141 L 19.022429,5.2269613 Z M 20.251641,7.3270936 19.86579,10.105221 q 0.220486,0.09922 0.463021,0.09922 0.804775,0 1.245748,-0.5291669 0.440972,-0.5291672 0.440972,-1.2788208 0,-1.1410167 -1.174089,-1.1410167 -0.270096,0 -0.589801,0.071658 z"
         id="path14285"
         style="stroke-width:1;stroke-dasharray:none" />
      <path
         d="m 29.280555,8.9972776 h -3.351392 q -0.05512,0.6063374 0.275608,0.9646277 0.330729,0.3582907 0.898482,0.3582907 0.628386,0 1.896182,-0.5236554 l -0.270096,1.2788204 q -0.9977,0.369315 -1.780427,0.369315 -1.163065,0 -1.857597,-0.677996 -0.694532,-0.677995 -0.694532,-1.8134997 0,-1.1740897 0.810287,-1.9954013 0.810287,-0.8268238 1.962329,-0.8268238 0.9977,0 1.593013,0.5953131 0.600826,0.589801 0.600826,1.5599409 0,0.3417538 -0.08268,0.7110684 z M 26.077991,8.1153323 h 1.791452 q 0.01654,-0.093707 0.01654,-0.1874134 0,-0.3362417 -0.20395,-0.5401915 -0.20395,-0.2094621 -0.545703,-0.2094621 -0.733117,0 -1.058335,0.937067 z"
         id="path14287"
         style="stroke-width:1;stroke-dasharray:none" />
      <path
         d="m 32.339804,6.2191498 -0.08819,0.5787766 q 0.854385,-0.6669712 1.747354,-0.6669712 0.672484,0 1.030774,0.4189241 0.35829,0.4134119 0.35829,1.1630654 0,0.2204863 -0.03307,0.4630213 l -0.440972,3.169491 h -1.526868 l 0.429948,-3.0592478 q 0.02205,-0.1322918 0.02205,-0.2645836 0,-0.7606779 -0.474046,-0.7606779 -0.545703,0 -1.284333,0.7882387 l -0.463021,3.2962706 h -1.526868 l 0.727605,-5.1263072 z"
         id="path14289"
         style="stroke-width:1;stroke-dasharray:none" />
      <path
         d="m 42.16798,3.6449718 -1.069359,7.6343392 q -0.975652,0.165365 -1.76389,0.165365 -1.361503,0 -2.166279,-0.666971 -0.799263,-0.666971 -0.799263,-1.7914517 0,-1.1851141 0.859897,-2.01745 0.865409,-0.8378481 2.320619,-0.8378481 0.237023,0 0.744141,0.055122 l 0.352778,-2.541105 z m -2.436374,6.5043472 0.374827,-2.6623728 q -0.198438,-0.027561 -0.385851,-0.027561 -0.8158,0 -1.295357,0.4464848 -0.479558,0.4409727 -0.479558,1.0914074 0,0.556728 0.363802,0.8819453 0.369315,0.3252171 1.003213,0.3252171 0.165365,0 0.418924,-0.05512 z"
         id="path14291"
         style="stroke-width:1;stroke-dasharray:none" />
      <path
         d="m 43.297976,4.7970129 q 0,-0.3252173 0.231511,-0.556728 0.231511,-0.2315106 0.556728,-0.2315106 0.33073,0 0.56224,0.2315106 0.231511,0.2315107 0.231511,0.556728 0,0.3307295 -0.231511,0.5622402 -0.23151,0.2315106 -0.56224,0.2315106 -0.325217,0 -0.556728,-0.2315106 -0.231511,-0.2315107 -0.231511,-0.5622402 z m 1.37804,1.4221369 -0.722093,5.1263072 h -1.526868 l 0.722093,-5.1263072 z"
         id="path14293"
         style="stroke-width:1;stroke-dasharray:none" />
      <path
         d="m 50.182659,3.8048244 -0.170877,1.2292113 q -0.48507,-0.2480471 -0.854385,-0.2480471 -1.008725,0 -1.107944,1.4331612 h 0.981165 l -0.159853,1.1299924 h -0.992189 l -0.881945,6.2452758 h -1.521356 l 0.881946,-6.2452758 h -1.041798 l 0.159852,-1.1299924 h 1.04731 q 0.148829,-1.3118937 0.799263,-1.9898892 0.650435,-0.6835076 1.631599,-0.6835076 0.584289,0 1.229212,0.2590714 z"
         id="path14295"
         style="stroke-width:1;stroke-dasharray:none" />
      <path
         d="m 54.548289,6.2191498 -3.720707,7.7225342 h -1.604038 l 1.488282,-3.070273 -1.637111,-4.6522612 h 1.526868 l 1.003213,2.993102 1.355991,-2.993102 z"
         id="path14297"
         style="stroke-width:1;stroke-dasharray:none" />
    </g>
  </g>
</svg>
